<svg width="177" height="177" viewBox="0 0 177 177" fill="none" xmlns="http://www.w3.org/2000/svg">
<path d="M148.09 1.29667L168.29 1.29667C170.17 1.29667 171.96 1.61667 173.44 2.89667C175.1 4.33667 175.73 6.30667 175.73 8.43667L175.73 29.6667C175.73 30.4867 177 30.4867 177 29.6667L177 8.66667C177 6.86667 176.73 5.14667 175.72 3.60667C174.24 1.34667 171.76 0.0666664 169.09 0.0266663C165.76 -0.0333338 162.43 0.026666 159.11 0.0266659L148.09 0.0266654C147.27 0.0266654 147.27 1.29667 148.09 1.29667Z" fill="#00CF00"/>
<path d="M1.29667 28.91L1.29667 8.71C1.29667 6.83 1.61667 5.04 2.89667 3.56C4.33667 1.9 6.30667 1.27 8.43667 1.27L29.6667 1.27C30.4867 1.27 30.4867 0 29.6667 0L8.66667 0C6.86667 0 5.14667 0.27 3.60667 1.28C1.34667 2.76 0.0666667 5.24 0.0266667 7.91C-0.0333333 11.24 0.0266667 14.57 0.0266667 17.89L0.0266667 28.91C0.0266667 29.73 1.29667 29.73 1.29667 28.91Z" fill="#00CF00"/>
<path d="M29.2884 175.606H9.08842C7.20842 175.606 5.41842 175.286 3.93842 174.006C2.27842 172.566 1.64842 170.596 1.64842 168.466L1.64842 147.236C1.64842 146.416 0.378418 146.416 0.378418 147.236L0.378418 168.236C0.378418 170.036 0.648418 171.756 1.65842 173.296C3.13842 175.556 5.61842 176.836 8.28842 176.876C11.6184 176.936 14.9484 176.876 18.2684 176.876H29.2884C30.1084 176.876 30.1084 175.606 29.2884 175.606Z" fill="#00CF00"/>
<path d="M148.09 175.703H168.29C170.17 175.703 171.96 175.383 173.44 174.103C175.1 172.663 175.73 170.693 175.73 168.563V147.333C175.73 146.513 177 146.513 177 147.333V168.333C177 170.133 176.73 171.853 175.72 173.393C174.24 175.653 171.76 176.933 169.09 176.973C165.76 177.033 162.43 176.973 159.11 176.973H148.09C147.27 176.973 147.27 175.703 148.09 175.703Z" fill="#00CF00"/>
</svg>
